<?xml version="1.0" encoding="UTF-8" standalone="no"?>
<!-- Created with Inkscape (http://www.inkscape.org/) -->

<svg
   width="188.91881mm"
   height="59.076096mm"
   viewBox="0 0 188.91881 59.076096"
   version="1.1"
   id="svg16216"
   inkscape:version="1.2 (dc2aeda, 2022-05-15)"
   sodipodi:docname="logo.svg"
   xmlns:inkscape="http://www.inkscape.org/namespaces/inkscape"
   xmlns:sodipodi="http://sodipodi.sourceforge.net/DTD/sodipodi-0.dtd"
   xmlns="http://www.w3.org/2000/svg"
   xmlns:svg="http://www.w3.org/2000/svg">
  <sodipodi:namedview
     id="namedview16218"
     pagecolor="#ffffff"
     bordercolor="#000000"
     borderopacity="0.25"
     inkscape:showpageshadow="2"
     inkscape:pageopacity="0.0"
     inkscape:pagecheckerboard="0"
     inkscape:deskcolor="#d1d1d1"
     inkscape:document-units="mm"
     showgrid="false"
     inkscape:zoom="1.6974223"
     inkscape:cx="427.41279"
     inkscape:cy="106.92684"
     inkscape:window-width="2560"
     inkscape:window-height="1387"
     inkscape:window-x="2560"
     inkscape:window-y="25"
     inkscape:window-maximized="0"
     inkscape:current-layer="layer1" />
  <defs
     id="defs16213">
    <inkscape:path-effect
       effect="bend_path"
       id="path-effect22939"
       is_visible="true"
       lpeversion="1"
       bendpath="m 145.39102,36.401605 h 25.8473"
       prop_scale="1"
       scale_y_rel="false"
       vertical="false"
       hide_knot="false" />
    <rect
       x="94.434204"
       y="87.107414"
       width="584.5152"
       height="179.09937"
       id="rect17363" />
  </defs>
  <g
     inkscape:label="Ebene 1"
     inkscape:groupmode="layer"
     id="layer1"
     transform="translate(-10.755278,-5.1438284)">
    <rect
       style="fill:#d4904d;fill-opacity:1;stroke:#976200;stroke-width:0;stroke-linecap:square;stroke-linejoin:round;stroke-dasharray:none;paint-order:markers fill stroke"
       id="rect26352"
       width="188.91881"
       height="59.076096"
       x="10.755279"
       y="5.1438289"
       ry="8.1849766" />
    <text
       xml:space="preserve"
       transform="matrix(0.43258692,0,0,0.70703454,-16.001378,-40.850329)"
       id="text17361"
       style="font-style:normal;font-variant:normal;font-weight:normal;font-stretch:normal;font-size:42.6667px;line-height:1;font-family:'American Typewriter';-inkscape-font-specification:'American Typewriter, Normal';font-variant-ligatures:normal;font-variant-caps:normal;font-variant-numeric:normal;font-variant-east-asian:normal;white-space:pre;shape-inside:url(#rect17363);fill:#fed643;fill-opacity:1;stroke:#976200;stroke-width:0;stroke-linejoin:round;stroke-dasharray:none;paint-order:markers fill stroke"><tspan
         x="94.433594"
         y="120.95666"
         id="tspan29368">Brew Master</tspan></text>
    <rect
       style="fill:#fef2c2;fill-opacity:1;stroke:#976200;stroke-width:0;stroke-linecap:square;stroke-linejoin:round;stroke-dasharray:none;paint-order:markers fill stroke;image-rendering:auto"
       id="rect20129"
       width="28.001236"
       height="36.616997"
       x="148.62193"
       y="21.754805"
       class="UnoptimicedTransforms"
       ry="8.1849766"
       transform="matrix(1,0,0,1.0893942,-3.0155173,-7.8028276)" />
    <rect
       style="fill:#fef2c2;fill-opacity:1;stroke:#976200;stroke-width:0;stroke-linecap:square;stroke-linejoin:round;stroke-dasharray:none;paint-order:markers fill stroke"
       id="rect22993"
       width="14.216009"
       height="18.093107"
       x="168.00742"
       y="28.86281"
       ry="3.6617" />
    <rect
       style="fill:#d4904d;fill-opacity:1;stroke:#976200;stroke-width:0;stroke-linecap:square;stroke-linejoin:round;stroke-dasharray:none;paint-order:markers fill stroke"
       id="rect22995"
       width="4.7386703"
       height="13.139041"
       x="174.90002"
       y="31.232145"
       ry="0" />
    <rect
       style="fill:#fed643;fill-opacity:1;stroke:#976200;stroke-width:0;stroke-linecap:square;stroke-linejoin:round;stroke-dasharray:none;paint-order:markers fill stroke"
       id="rect24197"
       width="25.096237"
       height="32.524513"
       x="147.44861"
       y="19.170074"
       ry="5.6002469" />
    <circle
       style="fill:#b4751e;fill-opacity:1;stroke:#976200;stroke-width:0;stroke-linecap:square;stroke-linejoin:round;stroke-dasharray:none;paint-order:markers fill stroke"
       id="path25153"
       cx="164.74197"
       cy="25.870995"
       r="0.56468618" />
    <circle
       style="fill:#b4751e;fill-opacity:1;stroke:#976200;stroke-width:0;stroke-linecap:square;stroke-linejoin:round;stroke-dasharray:none;paint-order:markers fill stroke"
       id="path25153-2"
       cx="167.31444"
       cy="33.504715"
       r="0.56468618" />
    <circle
       style="fill:#b4751e;fill-opacity:1;stroke:#976200;stroke-width:0;stroke-linecap:square;stroke-linejoin:round;stroke-dasharray:none;paint-order:markers fill stroke"
       id="path25153-0"
       cx="157.23375"
       cy="43.585411"
       r="0.56468618" />
    <circle
       style="fill:#b4751e;fill-opacity:1;stroke:#976200;stroke-width:0;stroke-linecap:square;stroke-linejoin:round;stroke-dasharray:none;paint-order:markers fill stroke"
       id="path25153-3"
       cx="162.14859"
       cy="29.510082"
       r="0.3764576" />
    <circle
       style="fill:#b4751e;fill-opacity:1;stroke:#976200;stroke-width:0;stroke-linecap:square;stroke-linejoin:round;stroke-dasharray:none;paint-order:markers fill stroke"
       id="path25153-3-6"
       cx="152.96722"
       cy="25.138994"
       r="0.3764576" />
    <circle
       style="fill:#b4751e;fill-opacity:1;stroke:#976200;stroke-width:0;stroke-linecap:square;stroke-linejoin:round;stroke-dasharray:none;paint-order:markers fill stroke"
       id="path25153-3-0"
       cx="165.72495"
       cy="41.41032"
       r="0.3764576" />
    <circle
       style="fill:#b4751e;fill-opacity:1;stroke:#976200;stroke-width:0;stroke-linecap:square;stroke-linejoin:round;stroke-dasharray:none;paint-order:markers fill stroke"
       id="path25153-3-7"
       cx="155.56061"
       cy="48.479359"
       r="0.3764576" />
    <circle
       style="fill:#b4751e;fill-opacity:1;stroke:#976200;stroke-width:0;stroke-linecap:square;stroke-linejoin:round;stroke-dasharray:none;paint-order:markers fill stroke"
       id="path25153-9"
       cx="155.45602"
       cy="28.75717"
       r="0.7947433" />
    <circle
       style="fill:#b4751e;fill-opacity:1;stroke:#976200;stroke-width:0;stroke-linecap:square;stroke-linejoin:round;stroke-dasharray:none;paint-order:markers fill stroke"
       id="path25153-9-9"
       cx="161.37477"
       cy="37.185635"
       r="0.7947433" />
    <circle
       style="fill:#b4751e;fill-opacity:1;stroke:#976200;stroke-width:0;stroke-linecap:square;stroke-linejoin:round;stroke-dasharray:none;paint-order:markers fill stroke"
       id="path25153-9-6"
       cx="152.17249"
       cy="43.669067"
       r="0.7947433" />
    <circle
       style="fill:#b4751e;fill-opacity:1;stroke:#976200;stroke-width:0;stroke-linecap:square;stroke-linejoin:round;stroke-dasharray:none;paint-order:markers fill stroke"
       id="path25153-9-64"
       cx="165.85043"
       cy="47.684612"
       r="0.7947433" />
    <circle
       style="fill:#b4751e;fill-opacity:1;stroke:#976200;stroke-width:0;stroke-linecap:square;stroke-linejoin:round;stroke-dasharray:none;paint-order:markers fill stroke"
       id="path25153-9-0"
       cx="158.99054"
       cy="24.135109"
       r="0.7947433" />
    <circle
       style="fill:#b4751e;fill-opacity:1;stroke:#976200;stroke-width:0;stroke-linecap:square;stroke-linejoin:round;stroke-dasharray:none;paint-order:markers fill stroke"
       id="path25153-9-8"
       cx="153.3855"
       cy="34.843231"
       r="0.7947433" />
    <path
       id="path26205"
       style="fill:#ffffff;fill-opacity:1;stroke:#976200;stroke-width:0;stroke-linecap:square;stroke-linejoin:round;stroke-dasharray:none;paint-order:markers fill stroke"
       d="m 153.85292,12.274878 a 3.6529255,3.3766642 0 0 0 -3.45433,2.285649 3.6529255,3.3766642 0 0 0 -0.3522,-0.01602 3.6529255,3.3766642 0 0 0 -3.65279,3.377055 3.6529255,3.3766642 0 0 0 0.21468,1.133264 3.6529255,3.3766642 0 0 0 -0.95149,2.271696 3.6529255,3.3766642 0 0 0 3.65279,3.376538 3.6529255,3.3766642 0 0 0 3.25978,-1.855701 3.6529255,3.3766642 0 0 0 1.89739,0.49351 3.6529255,3.3766642 0 0 0 1.65366,-0.367936 3.6529255,3.3766642 0 0 0 2.58278,0.992188 3.6529255,3.3766642 0 0 0 2.7147,-1.119312 3.6529255,3.3766642 0 0 0 1.09181,0.154513 3.6529255,3.3766642 0 0 0 0.83969,-0.09095 3.6529255,3.3766642 0 0 0 3.39619,2.134237 3.6529255,3.3766642 0 0 0 3.04288,-1.510502 3.6529255,3.3766642 0 0 0 1.07056,0.148311 3.6529255,3.3766642 0 0 0 3.65279,-3.376538 3.6529255,3.3766642 0 0 0 -3.65279,-3.376538 3.6529255,3.3766642 0 0 0 -1.67545,0.378788 3.2231697,2.9794097 0 0 0 -3.08257,-2.109949 3.2231697,2.9794097 0 0 0 -2.56992,1.184424 3.2231697,2.9794097 0 0 0 -5.6e-4,0 3.6529255,3.3766642 0 0 0 -1.02082,-0.134359 3.6529255,3.3766642 0 0 0 -0.59314,0.04599 3.6529255,3.3766642 0 0 0 -3.18263,-1.720308 3.6529255,3.3766642 0 0 0 -1.34339,0.237195 3.6529255,3.3766642 0 0 0 -3.53762,-2.535246 z" />
    <circle
       style="fill:#969696;fill-opacity:1;stroke:#976200;stroke-width:0;stroke-linecap:square;stroke-linejoin:round;stroke-dasharray:none;paint-order:markers fill stroke"
       id="path27880"
       cx="19.016581"
       cy="12.002267"
       r="2.4939778" />
    <circle
       style="fill:#969696;fill-opacity:1;stroke:#976200;stroke-width:0;stroke-linecap:square;stroke-linejoin:round;stroke-dasharray:none;paint-order:markers fill stroke"
       id="path27880-4"
       cx="191.4128"
       cy="11.69052"
       r="2.4939778" />
    <circle
       style="fill:#969696;fill-opacity:1;stroke:#976200;stroke-width:0;stroke-linecap:square;stroke-linejoin:round;stroke-dasharray:none;paint-order:markers fill stroke"
       id="path27880-0"
       cx="18.237209"
       cy="56.893867"
       r="2.4939778" />
    <circle
       style="fill:#969696;fill-opacity:1;stroke:#976200;stroke-width:0;stroke-linecap:square;stroke-linejoin:round;stroke-dasharray:none;paint-order:markers fill stroke"
       id="path27880-6"
       cx="192.81566"
       cy="57.673233"
       r="2.4939778" />
  </g>
</svg>
